HIERARCHY
ROOT Hips
{
    OFFSET 0.000000 0.000000 0.000000
    CHANNELS 6 Xposition Yposition Zposition Zrotation Xrotation Yrotation
    JOINT Spine
    {
        OFFSET -0.000000 14.517291 0.000000
        CHANNELS 3 Zrotation Xrotation Yrotation
        JOINT Spine1
        {
            OFFSET -0.000000 37.558300 0.000000
            CHANNELS 3 Zrotation Xrotation Yrotation
            JOINT Neck
            {
                OFFSET -0.000000 37.404057 3.400369
                CHANNELS 3 Zrotation Xrotation Yrotation
                JOINT Head
                {
                    OFFSET -0.000000 24.785618 -3.540803
                    CHANNELS 3 Zrotation Xrotation Yrotation
                    End Site
                    {
                        OFFSET -0.000000 35.408028 0.000000
                    }
                }
            }
            JOINT LeftShoulder
            {
                OFFSET 6.992933 33.973492 -0.192664
                CHANNELS 3 Zrotation Xrotation Yrotation
                JOINT LeftArm
                {
                    OFFSET 21.527611 0.000000 0.000000
                    CHANNELS 3 Zrotation Xrotation Yrotation
                    JOINT LeftForeArm
                    {
                        OFFSET 56.353916 0.000000 0.000000
                        CHANNELS 3 Zrotation Xrotation Yrotation
                        JOINT LeftHand
                        {
                            OFFSET 47.774071 0.000000 0.000000
                            CHANNELS 3 Zrotation Xrotation Yrotation
                            End Site
                            {
                                OFFSET 26.556021 0.000000 0.000000
                            }
                        }
                    }
                }
            }
            JOINT RightShoulder
            {
                OFFSET -7.065357 33.973492 -0.192664
                CHANNELS 3 Zrotation Xrotation Yrotation
                JOINT RightArm
                {
                    OFFSET -21.527611 0.000000 0.000000
                    CHANNELS 3 Zrotation Xrotation Yrotation
                    JOINT RightForeArm
                    {
                        OFFSET -56.353916 0.000000 0.000000
                        CHANNELS 3 Zrotation Xrotation Yrotation
                        JOINT RightHand
                        {
                            OFFSET -47.774071 0.000000 0.000000
                            CHANNELS 3 Zrotation Xrotation Yrotation
                            End Site
                            {
                                OFFSET -26.556021 0.000000 0.000000
                            }
                        }
                    }
                }
            }
        }
    }
    JOINT LeftUpLeg
    {
        OFFSET 17.704014 0.000000 0.000000
        CHANNELS 3 Zrotation Xrotation Yrotation
        JOINT LeftLeg
        {
            OFFSET -0.000000 -81.181816 0.000000
            CHANNELS 3 Zrotation Xrotation Yrotation
            JOINT LeftFoot
            {
                OFFSET -0.000000 -62.821102 0.000000
                CHANNELS 3 Zrotation Xrotation Yrotation
                JOINT LeftToeBase
                {
                    OFFSET -0.000000 -11.507608 26.556021
                    CHANNELS 3 Zrotation Xrotation Yrotation
                    End Site
                    {
                        OFFSET -0.000000 0.000000 7.081605
                    }
                }
            }
        }
    }
    JOINT RightUpLeg
    {
        OFFSET -17.704014 0.000000 0.000000
        CHANNELS 3 Zrotation Xrotation Yrotation
        JOINT RightLeg
        {
            OFFSET -0.000000 -81.181816 0.000000
            CHANNELS 3 Zrotation Xrotation Yrotation
            JOINT RightFoot
            {
                OFFSET -0.000000 -62.821102 0.000000
                CHANNELS 3 Zrotation Xrotation Yrotation
                JOINT RightToeBase
                {
                    OFFSET -0.000000 -11.507608 26.556021
                    CHANNELS 3 Zrotation Xrotation Yrotation
                    End Site
                    {
                        OFFSET -0.000000 0.000000 7.081605
                    }
                }
            }
        }
    }
}
MOTION
Frames:    10
Frame Time:    0.008333
-25.718100    149.780029    -7.514747    -2.456975    3.409753    -1.910521    5.000906    1.403637    10.831086    -5.318044    -1.218355    3.575409    6.303267    -5.808710    -5.249564    4.441630    9.216082    -6.452818    2.848639    3.555331    -7.755998    -46.030548    16.961891    -35.037491    -5.100705    -19.721163    -126.256264    -0.996380    -28.883974    -3.505217    -15.722103    -1.750774    4.636468    31.358492    -21.209438    75.449104    3.923875    -16.009634    23.343401    11.429016    -12.395926    43.171890    23.451656    -34.768467    -10.102507    -13.993405    30.196070    -15.673105    -11.145683    -4.831752    38.292145    0.000000    0.000000    0.000000    -13.546812    8.846502    -30.203072    0.657930    21.238646    -11.116778    19.552200    -14.799078    -3.524242    0.000000    0.000000    0.000000    
-25.825199    149.721603    -7.515155    -2.444332    3.299754    -1.833346    5.025593    1.374506    10.789130    -5.299892    -1.198105    3.562249    6.256849    -5.799901    -5.261382    4.517874    9.256330    -6.452205    2.848155    3.546971    -7.761996    -45.986618    17.019432    -35.045231    -5.082048    -19.810339    -126.240868    -1.029389    -28.930038    -3.551043    -15.730637    -1.754588    4.584632    31.419262    -21.206161    75.525093    3.936276    -15.979693    23.253553    11.409265    -12.371440    43.182064    23.441391    -34.705078    -10.137999    -13.998209    30.196596    -15.699614    -11.229658    -4.860861    38.273628    0.000000    0.000000    0.000000    -13.540000    9.008904    -30.171659    0.707296    21.270695    -11.148796    19.582041    -14.989820    -3.431163    0.000000    0.000000    0.000000    
-25.921207    149.662277    -7.516053    -2.430715    3.199804    -1.755930    5.064647    1.334083    10.755963    -5.322478    -1.141523    3.553176    6.326800    -5.840014    -5.260825    4.452011    9.316279    -6.474365    2.878105    3.537595    -7.762095    -45.961697    16.996828    -35.085419    -5.103759    -19.789230    -126.230568    -1.013428    -28.946703    -3.548482    -15.728035    -1.784653    4.558854    31.455946    -21.233543    75.523460    3.951013    -15.907688    23.194332    11.367994    -12.314456    43.190102    23.431976    -34.656780    -10.161459    -14.008198    30.203382    -15.718274    -11.312035    -4.875212    38.254803    0.000000    0.000000    0.000000    -13.537047    9.155658    -30.164589    0.743435    21.315607    -11.149952    19.602621    -15.177913    -3.348063    0.000000    0.000000    0.000000    
-25.995796    149.601593    -7.505871    -2.410336    3.095092    -1.695318    5.071525    1.321631    10.750679    -5.284491    -1.143418    3.551557    6.287370    -5.805685    -5.295300    4.475767    9.341003    -6.499983    2.855523    3.542005    -7.819292    -45.938271    16.991619    -35.067162    -5.101733    -19.813522    -126.219872    -1.020006    -28.963367    -3.558949    -15.767315    -1.763954    4.535930    31.438223    -21.241249    75.493637    3.939230    -15.917158    23.156881    11.394503    -12.312459    43.168941    23.416630    -34.602264    -10.166126    -14.024266    30.232355    -15.714187    -11.388191    -4.907946    38.202991    0.000000    0.000000    0.000000    -13.586132    9.243504    -30.157419    0.774557    21.504204    -11.168126    19.656979    -15.360095    -3.247551    0.000000    0.000000    0.000000    
-26.055878    149.543137    -7.485209    -2.384083    2.993514    -1.644951    5.084714    1.309887    10.752944    -5.284700    -1.141465    3.552319    6.223609    -5.813620    -5.333183    4.578142    9.413320    -6.523808    2.863517    3.545626    -7.877933    -45.917336    17.007803    -35.050312    -5.080862    -19.876619    -126.199638    -1.018611    -28.982126    -3.554615    -15.772684    -1.781336    4.498334    31.404598    -21.196733    75.455032    3.915014    -15.951267    23.124517    11.434311    -12.326174    43.163681    23.396067    -34.543831    -10.157712    -14.037932    30.265060    -15.741140    -11.436585    -4.938979    38.171532    0.000000    0.000000    0.000000    -13.621934    9.371304    -30.134747    0.804413    21.583622    -11.139862    19.711876    -15.536516    -3.196088    0.000000    0.000000    0.000000    
-26.098553    149.484497    -7.451105    -2.345160    2.888201    -1.604658    5.102369    1.283854    10.753595    -5.319242    -1.093447    3.554127    6.229854    -5.823082    -5.333173    4.620650    9.452498    -6.524616    2.884023    3.545690    -7.899985    -45.880882    17.037821    -35.067986    -5.050920    -19.954300    -126.173943    -1.011563    -28.997614    -3.533079    -15.764394    -1.777542    4.443057    31.442570    -21.199528    75.492241    3.895669    -15.912392    23.041941    11.397020    -12.295745    43.152893    23.357500    -34.479397    -10.157911    -14.064003    30.307405    -15.754550    -11.477407    -4.979426    38.148251    0.000000    0.000000    0.000000    -13.679636    9.496729    -30.132204    0.826043    21.672594    -11.115020    19.747711    -15.695518    -3.144652    0.000000    0.000000    0.000000    
-26.119179    149.432632    -7.414128    -2.297677    2.788096    -1.578505    5.121506    1.271442    10.757625    -5.357228    -1.081033    3.555595    6.268616    -5.796462    -5.323674    4.581701    9.484426    -6.524664    2.875750    3.556954    -7.917490    -45.851467    17.032413    -35.065498    -5.056522    -19.969013    -126.151352    -1.049161    -29.015722    -3.546153    -15.756507    -1.745112    4.424815    31.428377    -21.192711    75.494553    3.867933    -15.924940    22.987473    11.413078    -12.296133    43.141579    23.298992    -34.411415    -10.126773    -14.059186    30.359522    -15.787023    -11.509452    -5.029242    38.118046    0.000000    0.000000    0.000000    -13.759358    9.594336    -30.155674    0.829861    21.793039    -11.080235    19.785938    -15.834165    -3.082573    0.000000    0.000000    0.000000    
-26.130018    149.383163    -7.371782    -2.248613    2.698689    -1.568244    5.139325    1.252033    10.772203    -5.399211    -1.063360    3.560649    6.268594    -5.791354    -5.335227    4.587918    9.529241    -6.537888    2.867991    3.591332    -7.908705    -45.815708    17.032160    -35.094296    -5.063492    -19.994268    -126.128006    -1.044935    -29.047092    -3.518411    -15.752707    -1.711229    4.429059    31.412340    -21.204922    75.473541    3.857510    -15.934893    22.944284    11.385414    -12.312793    43.147717    23.256201    -34.350098    -10.071960    -14.080311    30.419071    -15.816539    -11.515130    -5.070192    38.097282    0.000000    0.000000    0.000000    -13.861683    9.639472    -30.163910    0.817152    21.989939    -11.076642    19.874056    -15.939997    -2.980117    0.000000    0.000000    0.000000    
-26.128044    149.338196    -7.329165    -2.195408    2.618182    -1.573168    5.128814    1.235758    10.793961    -5.399320    -1.032505    3.569079    6.239877    -5.805180    -5.346028    4.610069    9.543440    -6.543406    2.845580    3.599649    -7.873424    -45.821758    17.015165    -35.112434    -5.072291    -19.950048    -126.112686    -1.042648    -29.018383    -3.523985    -15.778355    -1.704966    4.395005    31.396177    -21.175392    75.471703    3.821692    -15.975732    22.912891    11.403881    -12.340528    43.133434    23.215399    -34.290699    -10.005267    -14.097389    30.482882    -15.849923    -11.529894    -5.122349    38.067459    0.000000    0.000000    0.000000    -13.954247    9.689683    -30.144714    0.805067    22.122244    -11.085279    19.908632    -16.034969    -2.901260    0.000000    0.000000    0.000000    
-26.112011    149.295593    -7.280477    -2.144270    2.542156    -1.589592    5.140328    1.214310    10.822628    -5.433530    -0.992615    3.579954    6.234786    -5.788570    -5.345173    4.617085    9.520915    -6.539235    2.836970    3.589290    -7.865942    -45.845627    17.003151    -35.086418    -5.075208    -19.922022    -126.114799    -1.000279    -28.999245    -3.489024    -15.787664    -1.695440    4.367937    31.376207    -21.151638    75.471695    3.781549    -16.001093    22.873705    11.367274    -12.376182    43.090382    23.174761    -34.235531    -9.908672    -14.106050    30.567999    -15.898439    -11.525632    -5.169203    38.044743    0.000000    0.000000    0.000000    -14.051909    9.721510    -30.118906    0.791810    22.272442    -11.095781    19.946342    -16.125868    -2.841761    0.000000    0.000000    0.000000    
